<svg xmlns="http://www.w3.org/2000/svg" viewBox="0 0 512 512"><path d="M412.8 214.188C398.294 140.585 333.653 85.332 256 85.332c-61.652 0-115.2 34.988-141.867 86.188C49.922 178.348 0 232.746 0 298.668c0 70.613 57.387 128 128 128h277.332C464.215 426.668 512 378.878 512 320c0-56.32-43.734-101.973-99.2-105.813zM405.333 384H128c-47.148 0-85.332-38.188-85.332-85.332 0-43.734 32.64-80.215 75.945-84.695l22.828-2.348 10.664-20.266C172.375 152.32 212.055 128 256 128c55.895 0 104.105 39.68 114.988 94.508l6.399 32 32.64 2.344c33.282 2.136 59.305 30.082 59.305 63.148 0 35.2-28.797 64-64 64zM170.668 277.332h54.398v64h61.868v-64h54.398L256 192zm0 0"/></svg>