<svg xmlns="http://www.w3.org/2000/svg" viewBox="0 0 512 512"><path d="M426.668 149.332v213.336H85.332V149.332h341.336m0-42.664H85.332c-23.465 0-42.453 19.2-42.453 42.664l-.211 213.336c0 23.465 19.2 42.664 42.664 42.664h341.336c23.465 0 42.664-19.2 42.664-42.664V149.332c0-23.465-19.2-42.664-42.664-42.664zm-192 64h42.664v42.664h-42.664zm0 64h42.664v42.664h-42.664zm-64-64h42.664v42.664h-42.664zm0 64h42.664v42.664h-42.664zm-64 0h42.664v42.664h-42.664zm0-64h42.664v42.664h-42.664zm64 128h170.664v42.664H170.668zm128-64h42.664v42.664h-42.664zm0-64h42.664v42.664h-42.664zm64 64h42.664v42.664h-42.664zm0-64h42.664v42.664h-42.664zm0 0"/></svg>